{"title":"Edge Of Darkness DVDRiP XViD AC3 - IMAGiNE","uid":5512999,"size":2192792631,"categoryP":"video","categoryS":"movies","magnet":"?xt=urn:btih:971b55259881e04b570fb572f96831f1df17bacc&amp;dn=Edge+Of+Darkness+DVDRiP+XViD+AC3+-+IMAGiNE&amp;tr=udp%3A%2F%2Ftracker.openbittorrent.com%3A80&amp;tr=udp%3A%2F%2Fopen.demonii.com%3A1337&amp;tr=udp%3A%2F%2Ftracker.coppersurfer.tk%3A6969&amp;tr=udp%3A%2F%2Fexodus.desync.com%3A6969","seeders":0,"leechers":0,"uploader":"IwannaFan2","files":3,"time":1272139599,"description":"Filename:\nEdge Of Darkness DVDRiP XViD AC3 - IMAGiNE\n &lt;a href=&quot;\nhttp://www.imdb.com/title/tt1226273/&quot; rel=&quot;nofollow&quot; target=&quot;_NEW&quot;&gt;\nhttp://www.imdb.com/title/tt1226273/&lt;/a&gt;\n\nDETAILS:\n\nVideo\nID                               : 0\nFormat                           : MPEG-4 Visual\nFormat profile                   : Advanced Simple@L5\nFormat settings, BVOP            : Yes\nFormat settings, QPel            : No\nFormat settings, GMC             : No warppoints\nFormat settings, Matrix          : Default (MPEG)\nMuxing mode                      : Packed bitstream\nCodec ID                         : XVID\nCodec ID/Hint                    : XviD\nDuration                         : 2h 2mn\nBit rate                         : 1 997 Kbps\nWidth                            : 720 pixels\nHeight                           : 304 pixels\nDisplay aspect ratio             : 2.35\nFrame rate                       : 23.976 fps\nResolution                       : 24 bits\nColorimetry                      : 4:2:0\nScan type                        : Progressive\nBits/(Pixel*Frame)               : 0.381\nStream size                      : 1.70 GiB (84%)\nWriting library                  : XviD 1.2.1 (UTC 2008-12-04)\n\nAudio\nID                               : 1\nFormat                           : AC-3\nFormat/Info                      : Audio Coding 3\nCodec ID                         : 2000\nDuration                         : 1h 56mn\nBit rate mode                    : Constant\nBit rate                         : 384 Kbps\nChannel(s)                       : 6 channels\nChannel positions                : Front: L C R, Surround: L R, LFE\nSampling rate                    : 48.0 KHz\nStream size                      : 321 MiB (15%)\nAlignment                        : Aligned on interleaves\nInterleave, duration             : 44 ms (1.05 video frame)\nInterleave, preload duration     : 512 ms\n\n\n\nNOTES:\n\nIMAGiNE bringing you another release.....Edge of Darkness\nWell we've just ripped the mptdvd release but have made the file on the large side so we could keep a\ngood bitrate whislt also keeping the original 5.1 audio track.","torrent":{"xt":"urn:btih:971b55259881e04b570fb572f96831f1df17bacc","amp;dn":"Edge+Of+Darkness+DVDRiP+XViD+AC3+-+IMAGiNE","amp;tr":["udp%3A%2F%2Ftracker.openbittorrent.com%3A80","udp%3A%2F%2Fopen.demonii.com%3A1337","udp%3A%2F%2Ftracker.coppersurfer.tk%3A6969","udp%3A%2F%2Fexodus.desync.com%3A6969"],"infoHash":"971b55259881e04b570fb572f96831f1df17bacc","infoHashBuffer":{"type":"Buffer","data":[151,27,85,37,152,129,224,75,87,15,181,114,249,104,49,241,223,23,186,204]},"announce":[],"urlList":[]}}